<svg width="16" height="12" viewBox="0 0 16 12" fill="none" xmlns="http://www.w3.org/2000/svg">
<g clip-path="url(#clip0_0_57)">
<path fill-rule="evenodd" clip-rule="evenodd" d="M0 0H22.8002V0.923086H0V0ZM0 1.84617H22.8002V2.76926H0V1.84617ZM0 3.69234H22.8002V4.61543H0V3.69234ZM0 5.53852H22.8002V6.4616H0V5.53852ZM0 7.38469H22.8002V8.30777H0V7.38469ZM0 9.23086H22.8002V10.1539H0V9.23086ZM0 11.077H22.8002V12.0001H0V11.077Z" fill="#BD3D44"/>
<path fill-rule="evenodd" clip-rule="evenodd" d="M0 0.922852H22.8002V1.84594H0V0.922852ZM0 2.76902H22.8002V3.69211H0V2.76902ZM0 4.6152H22.8002V5.53828H0V4.6152ZM0 6.46137H22.8002V7.38445H0V6.46137ZM0 8.30754H22.8002V9.23063H0V8.30754ZM0 10.1537H22.8002V11.0768H0V10.1537Z" fill="white"/>
<path fill-rule="evenodd" clip-rule="evenodd" d="M0 0H9.12V6.46148H0V0Z" fill="#192F5D"/>
<path fill-rule="evenodd" clip-rule="evenodd" d="M0.759718 0.276611L0.842687 0.531986H1.11123L0.893968 0.689838L0.97696 0.945213L0.759695 0.787385L0.542476 0.945213L0.625445 0.689838L0.408203 0.531986H0.676726L0.759718 0.276611ZM2.27971 0.276611L2.3627 0.531986H2.63125L2.41398 0.689838L2.49697 0.945213L2.27971 0.787385L2.06249 0.945213L2.14546 0.689838L1.92822 0.531986H2.19674L2.27971 0.276611ZM3.79977 0.276611L3.88274 0.531986H4.15128L3.93402 0.689838L4.01701 0.945213L3.79977 0.787385L3.58253 0.945213L3.66549 0.689838L3.44825 0.531986H3.7168L3.79977 0.276611ZM5.31973 0.276611L5.4027 0.531986H5.67123L5.45398 0.689838L5.53695 0.945213L5.31973 0.787385L5.10247 0.945213L5.18546 0.689838L4.96819 0.531986H5.23674L5.31973 0.276611ZM6.83977 0.276611L6.92274 0.531986H7.19128L6.97402 0.689838L7.05701 0.945213L6.83975 0.787385L6.62253 0.945213L6.7055 0.689838L6.48826 0.531986H6.75678L6.83977 0.276611ZM8.35981 0.276611L8.44278 0.531986H8.71132L8.49406 0.689838L8.57705 0.945213L8.35981 0.787385L8.14254 0.945213L8.22556 0.689838L8.00829 0.531986H8.27684L8.35981 0.276611ZM1.51975 0.922783L1.60272 1.17816H1.87126L1.654 1.33599L1.73701 1.59139L1.51975 1.43356L1.30251 1.59139L1.38547 1.33599L1.16823 1.17816H1.43678L1.51975 0.922783ZM3.03971 0.922783L3.12268 1.17816H3.39121L3.17396 1.33599L3.25693 1.59139L3.03971 1.43356L2.82245 1.59139L2.90544 1.33599L2.68818 1.17816H2.95672L3.03971 0.922783ZM4.55975 0.922783L4.64272 1.17816H4.91127L4.694 1.33599L4.77699 1.59139L4.55973 1.43356L4.34251 1.59139L4.42548 1.33599L4.20824 1.17816H4.47676L4.55975 0.922783ZM6.07979 0.922783L6.16276 1.17816H6.4313L6.21404 1.33599L6.29703 1.59139L6.07979 1.43356L5.86252 1.59139L5.94556 1.33599L5.7283 1.17816H5.99684L6.07979 0.922783ZM7.59975 0.922783L7.68272 1.17816H7.95124L7.734 1.33599L7.81697 1.59139L7.59975 1.43356L7.38249 1.59139L7.46548 1.33599L7.24821 1.17816H7.51676L7.59975 0.922783ZM0.759718 1.56893L0.842687 1.82431H1.11123L0.893968 1.98216L0.97696 2.23753L0.759695 2.07971L0.542476 2.23753L0.625445 1.98216L0.408203 1.82431H0.676726L0.759718 1.56893ZM2.27971 1.56893L2.3627 1.82431H2.63125L2.41398 1.98216L2.49697 2.23753L2.27971 2.07971L2.06249 2.23753L2.14546 1.98216L1.92822 1.82431H2.19674L2.27971 1.56893ZM3.79977 1.56893L3.88274 1.82431H4.15128L3.93402 1.98216L4.01701 2.23753L3.79977 2.07971L3.58253 2.23753L3.66549 1.98216L3.44825 1.82431H3.7168L3.79977 1.56893ZM5.31973 1.56893L5.4027 1.82431H5.67123L5.45398 1.98216L5.53695 2.23753L5.31973 2.07971L5.10247 2.23753L5.18546 1.98216L4.96819 1.82431H5.23674L5.31973 1.56893ZM6.83977 1.56893L6.92274 1.82431H7.19128L6.97402 1.98216L7.05701 2.23753L6.83975 2.07971L6.62253 2.23753L6.7055 1.98216L6.48826 1.82431H6.75678L6.83977 1.56893ZM8.35981 1.56893L8.44278 1.82431H8.71132L8.49406 1.98216L8.57705 2.23753L8.35981 2.07971L8.14254 2.23753L8.22556 1.98216L8.00829 1.82431H8.27684L8.35981 1.56893ZM1.51975 2.21508L1.60272 2.47048H1.87126L1.654 2.62831L1.73701 2.88371L1.51975 2.72588L1.30251 2.88371L1.38547 2.62831L1.16823 2.47048H1.43678L1.51975 2.21508ZM3.03971 2.21508L3.12268 2.47048H3.39121L3.17396 2.62831L3.25693 2.88371L3.03971 2.72588L2.82245 2.88371L2.90544 2.62831L2.68818 2.47048H2.95672L3.03971 2.21508ZM4.55975 2.21508L4.64272 2.47048H4.91127L4.694 2.62831L4.77699 2.88371L4.55973 2.72588L4.34251 2.88371L4.42548 2.62831L4.20824 2.47048H4.47676L4.55975 2.21508ZM6.07979 2.21508L6.16276 2.47048H6.4313L6.21404 2.62831L6.29703 2.88371L6.07979 2.72588L5.86252 2.88371L5.94554 2.62831L5.72827 2.47048H5.99682L6.07979 2.21508ZM7.59975 2.21508L7.68272 2.47048H7.95124L7.734 2.62831L7.81697 2.88371L7.59975 2.72588L7.38249 2.88371L7.46548 2.62831L7.24821 2.47048H7.51676L7.59975 2.21508ZM0.759718 2.86125L0.842687 3.11663H1.11123L0.893968 3.27448L0.97696 3.52985L0.759695 3.37203L0.542476 3.52985L0.625445 3.27448L0.408203 3.11663H0.676726L0.759718 2.86125ZM2.27971 2.86125L2.3627 3.11663H2.63125L2.41398 3.27448L2.49697 3.52985L2.27971 3.37203L2.06249 3.52985L2.14546 3.27448L1.92822 3.11663H2.19674L2.27971 2.86125ZM3.79977 2.86125L3.88274 3.11663H4.15128L3.93402 3.27448L4.01701 3.52985L3.79977 3.37203L3.58253 3.52985L3.66549 3.27448L3.44825 3.11663H3.7168L3.79977 2.86125ZM5.31973 2.86125L5.4027 3.11663H5.67123L5.45398 3.27448L5.53695 3.52985L5.31973 3.37203L5.10247 3.52985L5.18546 3.27448L4.96819 3.11663H5.23674L5.31973 2.86125ZM6.83977 2.86125L6.92274 3.11663H7.19128L6.97402 3.27448L7.05701 3.52985L6.83975 3.37203L6.62253 3.52985L6.7055 3.27448L6.48826 3.11663H6.75678L6.83977 2.86125ZM8.35981 2.86125L8.44278 3.11663H8.71132L8.49406 3.27448L8.57705 3.52985L8.35981 3.37203L8.14254 3.52985L8.22556 3.27448L8.00829 3.11663H8.27684L8.35981 2.86125ZM1.51975 3.5074L1.60272 3.7628H1.87126L1.654 3.92063L1.73701 4.17603L1.51975 4.0182L1.30251 4.17603L1.38547 3.92063L1.16823 3.7628H1.43678L1.51975 3.5074ZM3.03971 3.5074L3.12268 3.7628H3.39121L3.17396 3.92063L3.25693 4.17603L3.03971 4.0182L2.82245 4.17603L2.90544 3.92063L2.68818 3.7628H2.95672L3.03971 3.5074ZM4.55975 3.5074L4.64272 3.7628H4.91127L4.694 3.92063L4.77699 4.17603L4.55973 4.0182L4.34251 4.17603L4.42548 3.92063L4.20824 3.7628H4.47676L4.55975 3.5074ZM6.07979 3.5074L6.16276 3.7628H6.4313L6.21404 3.92063L6.29703 4.17603L6.07979 4.0182L5.86252 4.17603L5.94554 3.92063L5.72827 3.7628H5.99682L6.07979 3.5074ZM7.59975 3.5074L7.68272 3.7628H7.95124L7.734 3.92063L7.81697 4.17603L7.59975 4.0182L7.38249 4.17603L7.46548 3.92063L7.24821 3.7628H7.51676L7.59975 3.5074Z" fill="white"/>
<path fill-rule="evenodd" clip-rule="evenodd" d="M0.759718 4.15369L0.842687 4.40906H1.11123L0.893968 4.56691L0.97696 4.82229L0.759695 4.66446L0.542476 4.82229L0.625445 4.56691L0.408203 4.40906H0.676726L0.759718 4.15369ZM2.27971 4.15369L2.3627 4.40906H2.63125L2.41398 4.56691L2.49697 4.82229L2.27971 4.66446L2.06249 4.82229L2.14546 4.56691L1.92822 4.40906H2.19674L2.27971 4.15369ZM3.79977 4.15369L3.88274 4.40906H4.15128L3.93402 4.56691L4.01701 4.82229L3.79977 4.66446L3.58253 4.82229L3.66549 4.56691L3.44825 4.40906H3.7168L3.79977 4.15369ZM5.31973 4.15369L5.4027 4.40906H5.67123L5.45398 4.56691L5.53695 4.82229L5.31973 4.66446L5.10247 4.82229L5.18546 4.56691L4.96819 4.40906H5.23674L5.31973 4.15369ZM6.83977 4.15369L6.92274 4.40906H7.19128L6.97402 4.56691L7.05701 4.82229L6.83975 4.66446L6.62253 4.82229L6.7055 4.56691L6.48826 4.40906H6.75678L6.83977 4.15369ZM8.35981 4.15369L8.44278 4.40906H8.71132L8.49406 4.56691L8.57705 4.82229L8.35981 4.66446L8.14254 4.82229L8.22556 4.56691L8.00829 4.40906H8.27684L8.35981 4.15369ZM1.51975 4.79983L1.60272 5.05523H1.87126L1.654 5.21306L1.73701 5.46846L1.51975 5.31063L1.30251 5.46846L1.38547 5.21306L1.16823 5.05523H1.43678L1.51975 4.79983ZM3.03971 4.79983L3.12268 5.05523H3.39121L3.17396 5.21306L3.25693 5.46846L3.03971 5.31063L2.82245 5.46846L2.90544 5.21306L2.68818 5.05523H2.95672L3.03971 4.79983ZM4.55975 4.79983L4.64272 5.05523H4.91127L4.694 5.21306L4.77699 5.46846L4.55973 5.31063L4.34251 5.46846L4.42548 5.21306L4.20824 5.05523H4.47676L4.55975 4.79983ZM6.07979 4.79983L6.16276 5.05523H6.4313L6.21404 5.21306L6.29703 5.46846L6.07979 5.31063L5.86252 5.46846L5.94554 5.21306L5.72827 5.05523H5.99682L6.07979 4.79983ZM7.59975 4.79983L7.68272 5.05523H7.95124L7.734 5.21306L7.81697 5.46846L7.59975 5.31063L7.38249 5.46846L7.46548 5.21306L7.24821 5.05523H7.51676L7.59975 4.79983Z" fill="white"/>
<path fill-rule="evenodd" clip-rule="evenodd" d="M0.759718 5.4458L0.842687 5.70118H1.11123L0.893968 5.85903L0.97696 6.11441L0.759695 5.95658L0.542476 6.11441L0.625445 5.85903L0.408203 5.70118H0.676726L0.759718 5.4458ZM2.27971 5.4458L2.3627 5.70118H2.63125L2.41398 5.85903L2.49697 6.11441L2.27971 5.95658L2.06249 6.11441L2.14546 5.85903L1.92822 5.70118H2.19674L2.27971 5.4458ZM3.79977 5.4458L3.88274 5.70118H4.15128L3.93402 5.85903L4.01701 6.11441L3.79977 5.95658L3.58253 6.11441L3.66549 5.85903L3.44825 5.70118H3.7168L3.79977 5.4458ZM5.31973 5.4458L5.4027 5.70118H5.67123L5.45398 5.85903L5.53695 6.11441L5.31973 5.95658L5.10247 6.11441L5.18546 5.85903L4.96819 5.70118H5.23674L5.31973 5.4458ZM6.83977 5.4458L6.92274 5.70118H7.19128L6.97402 5.85903L7.05701 6.11441L6.83975 5.95658L6.62253 6.11441L6.7055 5.85903L6.48826 5.70118H6.75678L6.83977 5.4458ZM8.35981 5.4458L8.44278 5.70118H8.71132L8.49406 5.85903L8.57705 6.11441L8.35981 5.95658L8.14254 6.11441L8.22556 5.85903L8.00829 5.70118H8.27684L8.35981 5.4458Z" fill="white"/>
</g>
<defs>
<clipPath id="clip0_0_57">
<rect width="16" height="12" rx="2" fill="white"/>
</clipPath>
</defs>
</svg>
