<svg width="16" height="13" viewBox="0 0 16 13" fill="none" xmlns="http://www.w3.org/2000/svg">
<path d="M14.7233 1.48867L16 0.267333V0H11.5773L8.42533 7.84533L4.83933 0H0.202V0.267333L1.69333 2.06267C1.83867 2.19533 1.91467 2.38933 1.89533 2.58467V9.64C1.94133 9.894 1.85867 10.1553 1.68 10.34L0 12.376V12.64H4.76333V12.3727L3.08333 10.34C2.90133 10.1547 2.81533 9.898 2.852 9.64V3.53733L7.03333 12.6433H7.51933L11.1147 3.53733V10.7913C11.1147 10.9827 11.1147 11.022 10.9893 11.1473L9.696 12.3987V12.6667H15.9707V12.3993L14.724 11.1787C14.6147 11.096 14.558 10.9573 14.5813 10.8227V1.84467C14.558 1.70933 14.614 1.57067 14.7233 1.48867Z" fill="white"/>
</svg>
