<svg width="249" height="80" viewBox="0 0 249 80" fill="none" xmlns="http://www.w3.org/2000/svg">
<path d="M49.6191 15.2431V9.14583H57.5085V6.09723H49.6191V0H47.6859L46.5772 1.11147V15.2431H49.6191Z" fill="white"/>
<path d="M58.7455 0V15.2431H61.7873V1.11147L60.678 0H58.7455Z" fill="white"/>
<path d="M67.8397 12.1944V3.04861H80.007V1.11147L78.8977 0H65.9066L64.7979 1.11147V15.2431H78.8977L80.007 14.1316V12.1944H67.8397Z" fill="white"/>
<path d="M76.9659 6.0974H69.0759V9.14601H75.8883L76.9659 8.09805V6.0974Z" fill="white"/>
<path d="M122.497 12.1944V3.04861H134.664V1.11147L133.555 0H120.563L119.455 1.11147V15.2431H133.555L134.664 14.1316V12.1944H122.497Z" fill="white"/>
<path d="M131.621 6.0974H123.731V9.14601H130.543L131.621 8.09805V6.0974Z" fill="white"/>
<path d="M83.0184 0V14.1316L84.1271 15.2431H86.0602V3.04861H95.1857V6.09723H87.2957V9.14583H89.8625L94.4253 15.2431H98.2275L93.6648 9.14583H95.1857C96.8587 9.14583 98.2275 7.77396 98.2275 6.09723V2.54051L95.6924 0H83.0184Z" fill="white"/>
<path d="M103.771 15.2431L101.237 12.7025V2.54051L103.771 0H113.435L116.446 3.01686V12.7025L113.911 15.2431H103.771ZM104.278 3.04861V12.1944H113.404V3.04861H104.278Z" fill="white"/>
<path d="M171.42 15.2431L168.885 12.7025V2.54051L171.42 0H181.084L184.094 3.01686V12.7025L181.559 15.2431H171.42ZM171.927 3.04861V12.1944H181.052V3.04861H171.927Z" fill="white"/>
<path d="M138.783 15.2431L137.674 14.1316V12.1944H149.841V9.14583H137.674V2.54051L140.209 0H151.774L152.883 1.11147V3.04861H140.716V6.09723H152.883V12.7025L150.348 15.2431H138.783Z" fill="white"/>
<path d="M190.147 15.2431V3.04861H201.205L202.314 1.90538V0H188.214L187.105 1.11147V15.2431H190.147Z" fill="white"/>
<path d="M199.27 8.09805V6.0974H191.222V9.14601H198.193L199.27 8.09805Z" fill="white"/>
<path d="M22.3371 8.25972V6.98946L38.4968 6.51312V8.73606L22.3371 8.25972Z" fill="white"/>
<path d="M226.553 8.25972V6.98946L210.393 6.51312V8.73606L226.553 8.25972Z" fill="white"/>
<path d="M0 28.7388V31.7683L5.0697 37.1542V78.2787L6.65399 79.8665H14.8923L16.4765 78.2787V50.0155H18.0928L28.2002 66.5288H39.6071L49.4375 50.0155H50.697V78.2787L52.2813 79.8665H60.5196L62.1039 78.2787V30.3266L60.5196 28.7388H50.697L33.8244 57.0813L16.4765 28.7388H0Z" fill="white"/>
<path d="M177.441 28.7388V31.7683L193.918 49.0628V30.3266L192.333 28.7388H177.441Z" fill="white"/>
<path d="M184.094 79.868H192.332L193.916 78.2802V53.9866L182.509 42.0779V78.2802L184.094 79.868Z" fill="white"/>
<path d="M202.048 79.8668H211.87L223.589 47.9517L215.622 38.5848L201.046 78.279L202.048 79.8668Z" fill="white"/>
<path d="M238.169 79.8665L224.993 44.1309L217.035 34.7353L219.237 28.7388H235.793V31.7683L232.952 34.7855L248.99 78.2787L247.992 79.8665H238.169Z" fill="white"/>
<path d="M129.912 28.7388H120.089L119.09 30.3266L137.358 79.8665H149.715L167.906 30.3266L166.826 28.7388H157.082L143.526 65.6584L129.912 28.7388Z" fill="white"/>
<path d="M85.2349 28.7388V31.7683L88.0247 34.7321L95.9803 44.1309L109.158 79.8665H118.98L119.979 78.2787L101.711 28.7388H85.2349Z" fill="white"/>
<path d="M82.858 79.8681H73.6691L72.0342 78.2803L86.61 38.5848L94.5769 47.9529L82.858 79.8681Z" fill="white"/>
<path d="M243.677 32.8226H243.144C243.051 32.8226 243.005 32.7782 243.005 32.6893V29.5073C243.005 29.4607 242.981 29.4374 242.935 29.4374H242.213C242.124 29.4374 242.08 29.3929 242.08 29.304V28.8721C242.08 28.7832 242.124 28.7388 242.213 28.7388H244.608C244.697 28.7388 244.741 28.7832 244.741 28.8721V29.304C244.741 29.3929 244.697 29.4374 244.608 29.4374H243.886C243.835 29.4374 243.81 29.4607 243.81 29.5073V32.6893C243.81 32.7782 243.765 32.8226 243.677 32.8226Z" fill="white"/>
<path d="M247.929 28.7388H248.867C248.956 28.7388 249 28.7832 249 28.8721V32.6893C249 32.7782 248.956 32.8226 248.867 32.8226H248.348C248.259 32.8226 248.215 32.7782 248.215 32.6893V29.6787H248.189L247.543 31.8064C247.518 31.8911 247.465 31.9335 247.385 31.9335H246.852C246.773 31.9335 246.719 31.8911 246.694 31.8064L246.035 29.6724H246.009V32.6893C246.009 32.7401 246.001 32.7761 245.984 32.7972C245.968 32.8142 245.932 32.8226 245.876 32.8226H245.357C245.268 32.8226 245.224 32.7782 245.224 32.6893V28.8721C245.224 28.7832 245.268 28.7388 245.357 28.7388H246.301C246.361 28.7388 246.401 28.7685 246.421 28.8277L247.093 31.0697H247.131L247.809 28.8277C247.822 28.7685 247.863 28.7388 247.929 28.7388Z" fill="white"/>
<path d="M144.644 41.9176L149.8 30.3266L148.922 28.7388H140.367L139.489 30.3266L144.644 41.9176Z" fill="white"/>
</svg>
