<svg width="16" height="18" viewBox="0 0 16 18" fill="none" xmlns="http://www.w3.org/2000/svg">
<path d="M7.14344 8.6129C7.52443 9.29032 6.66721 9.48387 6.28623 9.53226C5.71475 9.58065 5.57188 9.24194 5.66713 8.80645C5.71475 8.66129 5.81 8.51613 5.90525 8.41936C6.00049 8.32258 6.19098 8.22581 6.33385 8.22581C6.47672 8.22581 6.66721 8.22581 6.76246 8.32258C6.95295 8.37097 7.0482 8.46774 7.14344 8.6129Z" fill="white"/>
<path d="M9.42934 7.40323C9.00074 10.7903 14.8107 10.0645 14.7155 12.7258C15.287 11.9516 15.5251 9.91936 13.8583 8.85484C12.3343 7.8871 10.3818 8.41936 9.42934 7.40323Z" fill="white"/>
<path d="M12.8106 6.09677C12.763 6.04839 12.7153 6.04839 12.7153 6C12.7153 6.04839 12.763 6.09677 12.8106 6.09677Z" fill="white"/>
<path d="M14.144 8.56452C14.0964 8.46774 14.0488 8.37097 13.9535 8.27419C13.763 7.98387 13.4773 7.79032 13.1439 7.74194C12.9534 7.69355 12.7153 7.64516 12.4772 7.64516C12.2391 7.64516 12.0486 7.59678 11.8105 7.59678C11.3343 7.54839 10.9057 7.5 10.4294 7.40323C10.3342 7.35484 10.1913 7.35484 10.0961 7.30645C10.0484 7.30645 10.0008 7.25807 9.90557 7.25807C9.85795 7.20968 9.81033 7.20968 9.71508 7.16129C9.47697 7.06452 9.28648 6.87097 9.14361 6.72581C8.81025 6.3871 8.52451 6 8.23877 5.66129C7.95303 5.27419 7.71492 4.93548 7.38156 4.59677C7.09582 4.25806 6.71484 3.96774 6.33385 3.77419C5.95287 3.58065 5.47664 3.43548 5.04803 3.3871C5.52426 3.33871 6.00049 3.3871 6.4291 3.58065C6.8577 3.77419 7.28631 4.01613 7.61967 4.35484C7.85779 4.54839 8.04828 4.79032 8.23877 5.03226C9.71508 4.74194 10.858 4.98387 11.7629 5.51613C12.0486 5.66129 12.3343 5.85484 12.5725 6.09677C12.6201 6.14516 12.6677 6.14516 12.6677 6.19355C12.8582 6.3871 13.0487 6.58065 13.1916 6.77419C13.8583 7.40323 14.144 8.12903 14.144 8.56452Z" fill="white"/>
<path d="M5.1909 3.77419C5.57189 3.82258 5.95287 3.96774 6.19098 4.25806C6.4291 4.54839 6.52434 4.93548 6.61959 5.27419C6.66721 5.56452 6.71484 5.85484 6.81008 6.09677C6.8577 6.24194 6.95295 6.33871 7.00057 6.43548C7.0482 6.53226 7.14344 6.62903 7.19106 6.72581V6.82258C7.0482 6.96774 6.71484 6.82258 6.57197 6.72581C6.33385 6.62903 6.14336 6.43549 5.95287 6.24194C5.42902 5.66129 5.14328 4.79032 5.14328 4.01613C5.14328 3.96774 5.1909 3.87097 5.1909 3.77419Z" fill="white"/>
<path d="M11.3819 10.5484C10.5723 12.8226 14.2393 14.371 12.8582 16.6936C14.2393 16.1129 14.906 14.3226 14.3345 12.9194C13.8583 11.6613 12.3343 11.1774 11.3819 10.5484Z" fill="white"/>
<path d="M6.57197 13.5C6.81008 13.3548 7.0482 13.2097 7.28631 13.0645C7.52443 12.9677 7.81016 12.871 8.0959 12.8226C8.61975 12.7258 9.19123 12.6774 9.61984 12.4839C9.85795 12.3871 10.0484 12.2903 10.2389 12.0968C10.4294 11.9516 10.5247 11.7581 10.6199 11.5161C10.7152 11.2742 10.7152 11.0323 10.7152 10.7903C10.7152 10.5 10.6199 10.2581 10.5247 10.0161C10.7152 10.2097 10.858 10.5 10.9533 10.7903C11.0485 11.0806 11.0485 11.371 11.0009 11.6613C10.9533 11.9516 10.7628 12.2419 10.5723 12.4839C10.3818 12.6774 10.0961 12.871 9.81033 12.9677C9.52459 13.0645 9.23885 13.1129 8.95311 13.1613C8.66738 13.1613 8.42926 13.2097 8.14352 13.2097C7.61967 13.2097 7.09582 13.3065 6.57197 13.5Z" fill="white"/>
<path d="M11.7152 17.5161C11.62 17.5645 11.5724 17.6613 11.4771 17.7097C11.3819 17.7581 11.2866 17.8065 11.1914 17.8548C11.0009 17.9516 10.7628 18 10.5247 18C9.90557 18 9.47697 17.5161 9.23885 16.9839C9.04836 16.6452 8.95312 16.2581 8.76262 15.9194C8.47689 15.4355 7.95303 15.0484 7.38156 15.0968C7.14344 15.1452 6.90533 15.2419 6.81008 15.4355C6.47672 15.9677 6.95295 16.7419 7.61967 16.6452C7.66729 16.6452 7.71492 16.6452 7.76254 16.5968C7.81016 16.5968 7.85779 16.5484 7.90541 16.5C8.00065 16.4032 8.04828 16.3065 8.0959 16.2097C8.14352 16.1129 8.14352 15.9677 8.14352 15.8226C8.0959 15.6774 8.04828 15.5806 7.95303 15.5323C8.0959 15.5806 8.19115 15.6774 8.23877 15.8226C8.19115 16.0645 8.19115 16.2097 8.19115 16.3548C8.14352 16.5 8.0959 16.6452 8.00066 16.7419C7.95303 16.7903 7.90541 16.8387 7.81016 16.8871C7.76254 16.9355 7.66729 16.9839 7.61967 16.9839C7.4768 17.0323 7.33393 17.0323 7.19106 17.0323C7.00057 16.9839 6.76246 16.9355 6.61959 16.7903C6.4291 16.6452 6.28623 16.4032 6.09574 16.2581C5.90525 16.0161 5.66713 15.871 5.38139 15.7258C5.1909 15.629 5.00041 15.5806 4.80992 15.5323C4.71467 15.5323 4.61943 15.4839 4.52418 15.4839C4.47656 15.4839 4.23844 15.4355 4.23844 15.4355C4.5718 15.1452 4.90516 14.9032 5.23852 14.6613C5.61951 14.4194 6.00049 14.2742 6.4291 14.129C6.8577 13.9839 7.28631 13.9839 7.76254 14.0323C8.00066 14.0806 8.19115 14.129 8.42926 14.2258C8.66738 14.3226 8.85787 14.4677 9.04836 14.6129C9.23885 14.8065 9.38172 15 9.47697 15.1936C9.57221 15.3871 9.61983 15.629 9.66746 15.871C9.81033 16.5484 9.7627 17.6129 10.6199 17.7581C10.6675 17.7581 10.7152 17.7581 10.7628 17.7581H10.9057C11.0009 17.7581 11.0961 17.7581 11.1914 17.7097C11.3343 17.7097 11.5248 17.6129 11.7152 17.5161Z" fill="white"/>
<path d="M5.85762 7.20968C5.81 7.35484 5.76238 7.45161 5.71475 7.54839C5.57188 7.74194 5.38139 7.8871 5.1909 7.98387C5.00041 8.08065 4.80992 8.12903 4.5718 8.12903C4.52418 8.12903 4.47656 8.12903 4.42893 8.12903C4.28607 8.12903 4.19082 8.17742 4.04795 8.27419C3.9527 8.37097 3.85746 8.46774 3.85746 8.6129C3.85746 8.66129 3.80984 8.75807 3.80984 8.80645C3.80984 9 3.76221 9.14516 3.76221 9.3871C3.71459 9.7742 3.61934 10.1129 3.47648 10.4516C3.28598 10.8871 3.04787 11.2742 3.09549 11.7581C3.14311 12.0968 3.28598 12.3387 3.5241 12.5323C3.90508 12.9677 4.80992 13.1613 4.61943 14.1774C4.47656 14.8065 3.47648 15.4355 2.09541 15.6774C2.23828 15.6774 1.90492 15.0968 1.90492 15.0484C1.76205 14.8065 1.57156 14.5645 1.47631 14.3226C1.2382 13.8387 1.14295 13.2097 1.2382 12.6774C1.33344 12.0968 1.76205 11.6613 2.09541 11.1774C2.52402 10.6452 2.95262 9.96774 3.04787 9.24194C3.04787 9.09677 3.09549 8.85484 3.14311 8.66129C3.19074 8.41936 3.23836 8.22581 3.33361 7.98387C3.38123 7.83871 3.47648 7.74194 3.61934 7.59678C3.66697 7.54839 3.71459 7.45161 3.71459 7.40323C3.71459 7.30645 3.71459 7.25806 3.66697 7.16129L1.42869 3.04839L4.66705 7.1129C4.71467 7.16129 4.76229 7.20968 4.80992 7.20968C4.85754 7.25807 4.90516 7.25807 5.00041 7.25807C5.04803 7.25807 5.09566 7.25807 5.1909 7.20968C5.23852 7.16129 5.28615 7.16129 5.33377 7.1129C5.38139 7.06452 5.38139 7.01613 5.38139 6.91935C5.38139 6.87097 5.38139 6.77419 5.33377 6.72581C5.14328 6.43549 4.90516 6.19355 4.66705 5.90323L2.23828 2.85484L0 0L2.42877 2.66129L5.00041 5.56452C5.28615 5.90323 5.57189 6.19355 5.85762 6.58065L5.90525 6.62903V6.72581C5.90525 6.91936 5.90525 7.06452 5.85762 7.20968Z" fill="white"/>
<path d="M6.61959 16.7419C6.47672 16.5968 6.33385 16.4516 6.19098 16.3065C6.33385 16.5 6.4291 16.6452 6.61959 16.7419Z" fill="white"/>
</svg>
