<svg width="14" height="14" viewBox="0 0 14 14" fill="none" xmlns="http://www.w3.org/2000/svg">
<path fill-rule="evenodd" clip-rule="evenodd" d="M11.4546 14C10.4962 14 9.6615 12.5435 9.22726 10.3915C8.79305 12.5435 7.95837 14 7 14C6.04163 14 5.20695 12.5435 4.77274 10.3915C4.3385 12.5435 3.50382 14 2.54545 14C1.13964 14 1.37687e-06 10.866 1.37687e-06 7C1.37687e-06 3.134 1.13964 -6.25849e-07 2.54545 -6.25849e-07C3.50382 -6.25849e-07 4.3385 1.4565 4.77274 3.6085C5.20695 1.4565 6.04163 -6.25849e-07 7 -6.25849e-07C7.95837 -6.25849e-07 8.79305 1.4565 9.22726 3.6085C9.6615 1.4565 10.4962 -6.25849e-07 11.4546 -6.25849e-07C12.8604 -6.25849e-07 14 3.134 14 7C14 10.866 12.8604 14 11.4546 14Z" fill="#121417"/>
</svg>
