<svg width="169" height="18" viewBox="0 0 169 18" fill="none" xmlns="http://www.w3.org/2000/svg">
<path d="M15.5212 0V17.2754H13.3512L3.44491 6.459V17.2754H0V0H2.17002L12.0763 10.8164V0H15.5212Z" fill="white"/>
<path d="M20.3082 17.2754L17.6639 13.5172V7.17147H27.4454V10.3589H20.8538V12.096L22.1938 13.833H30.1254V17.2754H20.3082ZM17.6639 3.18748V0H30.1254V3.18748H17.6639Z" fill="white"/>
<path d="M48.6814 17.2754V0H51.8713V17.2754H48.6814Z" fill="white"/>
<path d="M66.9885 3.44246L62.9686 8.62193L66.9885 17.2754H63.36L60.1441 10.3589H57.207V17.2754H54.0171V6.91649H60.2772L62.9572 3.44246H54.0171V0H66.9885V3.44246Z" fill="white"/>
<path d="M81.6557 17.2754L76.6368 4.26359L72.703 14.088H77.0884L78.6834 17.2754H68.1113L74.7869 0H78.4868L85.1624 17.2754H81.6557Z" fill="white"/>
<path d="M42.3698 6.5716L47.0242 0.0630035H43.1147L40.4726 3.85728L42.3698 6.5716Z" fill="white"/>
<path d="M42.1686 9.86285L47.5342 17.3384H43.3697L39.0087 11.2431L34.6476 17.3384H30.7381L37.1814 8.20656L31.2481 0.0630035H35.1576L38.6991 4.9607L38.6887 4.98912L42.1579 9.87787L42.1686 9.86285Z" fill="white"/>
</svg>
