<svg width="16" height="17" viewBox="0 0 16 17" fill="none" xmlns="http://www.w3.org/2000/svg">
<path d="M7.95832 2.13827e-05C12.3874 -0.0100676 15.9796 3.5513 15.9998 7.97024C16.0099 11.2088 14.0822 14.1348 11.0958 15.3858C8.10952 16.6367 4.66906 15.9707 2.36882 13.6906C0.0688125 11.4105 -0.627032 7.97059 0.593534 4.97433C1.8143 1.97791 4.72986 0.0202404 7.95832 2.13827e-05ZM7.95832 0.615218C4.972 0.635439 2.27815 2.44204 1.14819 5.2165C0.018456 7.98068 0.664175 11.1583 2.79262 13.2668C4.92141 15.3653 8.09999 15.9914 10.8644 14.8311C13.6287 13.6709 15.4142 10.9666 15.4042 7.97024C15.3838 3.88428 12.0544 0.59504 7.95832 0.615218Z" fill="white"/>
</svg>
