<svg width="7" height="4" viewBox="0 0 7 4" fill="none" xmlns="http://www.w3.org/2000/svg">
<path d="M6.99978 2.91549C6.99978 3.19267 6.661 3.33639 6.46595 3.14134C6.2709 2.94629 6.40436 2.60752 6.68154 2.59726C6.85605 2.60752 6.99978 2.74098 6.99978 2.91549ZM2.92424 1.46802C2.92424 2.05317 2.56494 2.58699 2.02085 2.81284C1.47676 3.03868 0.850546 2.9155 0.429647 2.4946C0.00874775 2.0737 -0.114442 1.44748 0.111406 0.903395C0.337254 0.359306 0.871077 0 1.45623 0C1.84633 0 2.2159 0.153988 2.48281 0.4209C2.77026 0.708343 2.92424 1.07791 2.92424 1.46802Z" fill="black"/>
</svg>
