<svg width="16" height="11" viewBox="0 0 16 11" fill="none" xmlns="http://www.w3.org/2000/svg">
<path d="M15.6703 1.713C15.486 1.04317 14.9455 0.515141 14.2602 0.334775C13.0081 0 7.99982 0 7.99982 0C7.99982 0 2.9917 0 1.73965 0.322082C1.06748 0.502258 0.513868 1.04326 0.329493 1.713C0 2.93644 0 5.47368 0 5.47368C0 5.47368 0 8.02372 0.329493 9.23437C0.514063 9.90411 1.0543 10.4321 1.73975 10.6125C3.00489 10.9474 8.00002 10.9474 8.00002 10.9474C8.00002 10.9474 13.0081 10.9474 14.2602 10.6253C14.9456 10.445 15.486 9.91699 15.6705 9.24725C15.9999 8.02372 15.9999 5.48657 15.9999 5.48657C15.9999 5.48657 16.0131 2.93644 15.6703 1.713ZM6.40529 7.81768V3.12969L10.5699 5.47368L6.40529 7.81768Z" fill="white"/>
</svg>
